<svg width="432" height="491" viewBox="0 0 432 491" fill="none" xmlns="http://www.w3.org/2000/svg">
<path d="M424.831 151.709L270.831 6.10894C267.731 3.00894 262.531 0.908936 257.331 0.908936H21.2314C9.8314 0.908936 0.431396 10.3089 0.431396 21.7089V470.109C0.431396 481.509 9.8314 490.909 21.2314 490.909H410.331C421.731 490.909 431.131 481.509 431.131 469.109V166.309C431.131 161.109 429.031 155.909 424.831 151.709ZM277.131 69.2089L359.831 147.609H277.131V69.2089ZM390.531 450.309H40.9314V42.5089H236.531V167.309C236.531 178.709 245.931 188.109 257.331 188.109H390.531V450.309Z" fill="white"/>
<path d="M272.631 303.209C260.331 303.209 250.231 293.209 250.231 280.809C250.231 268.409 260.231 258.409 272.631 258.409C278.831 258.409 284.631 260.909 288.931 265.509C294.631 271.509 304.031 271.809 310.031 266.109C316.031 260.409 316.331 251.009 310.631 245.009C300.831 234.509 286.931 228.509 272.531 228.509C243.731 228.509 220.231 252.009 220.231 280.809C220.231 309.609 243.731 333.109 272.531 333.109C284.831 333.109 294.931 343.109 294.931 355.509C294.931 367.909 284.931 377.909 272.531 377.909C266.331 377.909 260.531 375.409 256.231 370.809C250.531 364.809 241.131 364.509 235.131 370.209C229.131 375.909 228.831 385.309 234.531 391.309C244.331 401.809 258.231 407.809 272.631 407.809C301.431 407.809 324.931 384.309 324.931 355.509C324.931 326.709 301.531 303.209 272.631 303.209Z" fill="white"/>
<path d="M183.831 228.509C175.531 228.509 168.831 235.209 168.831 243.509V361.709C168.831 370.709 161.531 377.909 152.631 377.909C143.631 377.909 136.431 370.609 136.431 361.709V350.409C136.431 342.109 129.731 335.409 121.431 335.409C113.131 335.409 106.431 342.109 106.431 350.409V361.709C106.431 387.109 127.131 407.809 152.531 407.809C177.931 407.809 198.631 387.109 198.631 361.709V243.509C198.831 235.209 192.131 228.509 183.831 228.509Z" fill="white"/>
</svg>
