<svg width="21" height="38" viewBox="0 0 21 38" fill="none" xmlns="http://www.w3.org/2000/svg">
<path d="M10.3945 0.5C4.84783 0.5 0.394531 5.01015 0.394531 10.75C0.394531 11.5784 1.06613 12.25 1.89453 12.25C2.72293 12.25 3.39453 11.5784 3.39453 10.75C3.39453 6.6099 6.56123 3.5 10.3945 3.5C14.2278 3.5 17.3945 6.6099 17.3945 10.75C17.3945 12.5859 16.9485 13.6009 16.3728 14.3571C15.8962 14.9832 15.3492 15.4403 14.6401 16.0328C14.3417 16.2821 14.0146 16.5553 13.6521 16.8752C12.4978 17.8938 11.2672 19.1863 10.3514 21.2513C9.44573 23.2935 8.89453 25.9838 8.89453 29.75V30C8.89453 30.8284 9.56613 31.5 10.3945 31.5C11.2229 31.5 11.8945 30.8284 11.8945 30V29.75C11.8945 26.2662 12.4058 24.019 13.0938 22.4675C13.7718 20.9387 14.6662 19.9812 15.6369 19.1248C15.8519 18.9351 16.09 18.7364 16.3403 18.5276C17.1388 17.8613 18.0621 17.0909 18.7599 16.1742C19.778 14.8366 20.3945 13.1641 20.3945 10.75C20.3945 5.01015 15.9412 0.5 10.3945 0.5Z" fill="white"/>
<path d="M10.3945 37.5C11.361 37.5 12.1445 36.7165 12.1445 35.75C12.1445 34.7835 11.361 34 10.3945 34C9.42803 34 8.64453 34.7835 8.64453 35.75C8.64453 36.7165 9.42803 37.5 10.3945 37.5Z" fill="white"/>
</svg>
