<svg width="372" height="513" viewBox="0 0 372 513" fill="none" xmlns="http://www.w3.org/2000/svg">
<path d="M368.228 102.336L269.913 4.03175C267.913 2.03175 265.2 0.908752 262.372 0.908752H34.0195C15.6625 0.908752 0.728516 15.8428 0.728516 34.1998V479.619C0.728516 497.975 15.6625 512.91 34.0195 512.91H338.062C356.419 512.91 371.354 497.976 371.354 479.619V109.88C371.353 107.05 370.229 104.336 368.228 102.336ZM273.038 37.3248L334.932 99.2128H273.038V37.3248ZM350.02 398.25H282.943C277.053 398.25 272.276 403.025 272.276 408.917C272.276 414.808 277.052 419.584 282.943 419.584H350.02V479.62C350.02 486.212 344.656 491.576 338.062 491.576H34.0195C27.4255 491.576 22.0625 486.212 22.0625 479.619V419.583H183.743C189.633 419.583 194.41 414.808 194.41 408.916C194.41 403.025 189.633 398.249 183.743 398.249H22.0615V34.1998C22.0615 27.6068 27.4245 22.2428 34.0185 22.2428H251.704V109.88C251.704 115.771 256.48 120.547 262.37 120.547H350.018V398.25H350.02Z" fill="white"/>
<path d="M83.6015 211.76H114.041C119.931 211.76 124.708 206.985 124.708 201.093C124.708 195.202 119.931 190.426 114.041 190.426H83.6025C62.1565 190.426 44.7075 207.873 44.7075 229.321V290.198C44.7075 311.644 62.1545 329.093 83.6025 329.093H114.041C119.931 329.093 124.708 324.318 124.708 318.426C124.708 312.534 119.931 307.76 114.041 307.76H83.6025C73.9195 307.76 66.0405 299.882 66.0405 290.198V229.321C66.0405 219.639 73.9175 211.76 83.6015 211.76Z" fill="white"/>
<path d="M200.438 253.645L178.935 245.825C172.021 243.311 167.375 236.677 167.375 229.32C167.375 219.637 175.253 211.758 184.937 211.758H198.132C201.759 211.758 204.709 214.709 204.709 218.336V224.736C204.709 230.627 209.486 235.403 215.376 235.403C221.266 235.403 226.041 230.628 226.041 224.737V218.337C226.041 202.946 213.52 190.426 198.131 190.426H184.936C163.49 190.426 146.041 207.875 146.041 229.321C146.041 245.615 156.33 260.304 171.644 265.875L193.147 273.695C200.061 276.209 204.708 282.842 204.708 290.2C204.708 299.883 196.83 307.762 187.146 307.762H173.952C170.325 307.762 167.374 304.812 167.374 301.184C167.374 295.293 162.597 290.517 156.707 290.517C150.817 290.517 146.041 295.291 146.041 301.182C146.041 316.572 158.562 329.093 173.952 329.093H187.146C208.592 329.093 226.041 311.646 226.041 290.198C226.041 273.904 215.752 259.215 200.438 253.645Z" fill="white"/>
<path d="M247.374 229.321C247.374 245.615 257.663 260.304 272.977 265.875L294.48 273.695C301.394 276.209 306.041 282.842 306.041 290.2C306.041 299.883 298.163 307.762 288.479 307.762H275.285C271.658 307.762 268.707 304.812 268.707 301.184C268.707 295.293 263.931 290.517 258.04 290.517C252.149 290.517 247.373 295.292 247.373 301.184C247.373 316.574 259.894 329.095 275.284 329.095H288.478C309.924 329.095 327.373 311.648 327.373 290.2C327.373 273.906 317.084 259.217 301.77 253.646L280.267 245.826C273.353 243.312 268.706 236.678 268.706 229.321C268.706 219.638 276.584 211.759 286.268 211.759H299.463C303.09 211.759 306.04 214.71 306.04 218.337V224.737C306.04 230.628 310.816 235.404 316.707 235.404C322.598 235.404 327.374 230.628 327.374 224.737V218.337C327.374 202.946 314.853 190.426 299.464 190.426H286.269C264.823 190.426 247.374 207.874 247.374 229.321Z" fill="white"/>
<path d="M235.652 398.249H232.097C226.207 398.249 221.43 403.024 221.43 408.916C221.43 414.807 226.207 419.583 232.097 419.583H235.652C241.542 419.583 246.319 414.808 246.319 408.916C246.318 403.024 241.543 398.249 235.652 398.249Z" fill="white"/>
</svg>
